# File created by Blade
# Date/Time:  Thu Jan 22 16:25:57 2015
#---------------------------------------------------------
:version 1.10
:name HOM
:units
  mass 1.0
  length 1.000000
  angle deg
:documentation
     Acclaim Skeleton File
:root
   axis xyz
   order TX TY TZ RX RY RZ
   position 0.000000 0.000000 0.000000
   orientation 0 0 0
:bonedata
   begin
      id 1
      name RightUpLeg_dum
      direction -1.000000 0.000000 0.000000
      length 3.766986
      axis 0.0 0.0 0.0 xyz
   end
   begin
      id 2
      name LeftUpLeg_dum
      direction 1.000000 0.000000 0.000000
      length 3.766986
      axis 0.0 0.0 0.0 xyz
   end
   begin
      id 3
      name Spine_dum
      direction 0.000000 1.000000 0.000000
      length 7.779697
      axis 0.0 0.0 0.0 xyz
   end
   begin
      id 4
      name RightUpLeg
      direction 0.000000 -1.000000 0.000000
      length 18.017682
      axis 0.0 0.0 0.0 xyz
      dof rx ry rz
   end
   begin
      id 5
      name RightLeg
      direction 0.000000 -1.000000 0.000000
      length 16.881075
      axis 0.0 0.0 0.0 xyz
      dof rx ry rz
   end
   begin
      id 6
      name RightFoot
      direction 0.000000 -0.258819 0.965926
      length 5.770812
      axis 15.0 0.0 0.0 xyz
      dof rx ry rz
   end
   begin
      id 7
      name RightToeBase
      direction 0.000000 0.000000 1.000000
      length 2.952750
      axis 0.0 0.0 0.0 xyz
      dof rx ry rz
   end
   begin
      id 8
      name LeftUpLeg
      direction 0.000000 -1.000000 0.000000
      length 18.017682
      axis 0.0 0.0 0.0 xyz
      dof rx ry rz
   end
   begin
      id 9
      name LeftLeg
      direction 0.000000 -1.000000 0.000000
      length 16.881075
      axis 0.0 0.0 0.0 xyz
      dof rx ry rz
   end
   begin
      id 10
      name LeftFoot
      direction 0.000000 -0.258819 0.965926
      length 5.770812
      axis 15.0 0.0 0.0 xyz
      dof rx ry rz
   end
   begin
      id 11
      name LeftToeBase
      direction 0.000000 0.000000 1.000000
      length 2.952750
      axis 0.0 0.0 0.0 xyz
      dof rx ry rz
   end
   begin
      id 12
      name Spine
      direction 0.000000 1.000000 0.000000
      length 0.000000
      axis 0.0 0.0 0.0 xyz
      dof rx ry rz
   end
   begin
      id 13
      name Spine_dum1
      direction 0.000000 1.000000 0.000000
      length 10.941760
      axis 0.0 0.0 0.0 xyz
   end
   begin
      id 14
      name Spine_dum2
      direction 0.000000 1.000000 0.000000
      length 10.941760
      axis 0.0 0.0 0.0 xyz
   end
   begin
      id 15
      name Spine_dum3
      direction 0.000000 1.000000 0.000000
      length 16.646042
      axis 0.0 0.0 0.0 xyz
   end
   begin
      id 16
      name RightShoulder
      direction -1.000000 0.000000 0.000000
      length 7.708937
      axis 0.0 0.0 90.0 xyz
      dof rx ry rz
   end
   begin
      id 17
      name RightArm
      direction -1.000000 0.000000 0.000000
      length 11.521345
      axis 0.0 0.0 90.0 xyz
      dof rx ry rz
   end
   begin
      id 18
      name RightForeArm
      direction -1.000000 0.000000 0.000000
      length 10.175898
      axis 0.0 0.0 90.0 xyz
      dof ry rz rx
   end
   begin
      id 19
      name RightHand
      direction -1.000000 0.000000 0.000000
      length 0.000000
      axis 0.0 0.0 90.0 xyz
      dof rx ry rz
   end
   begin
      id 20
      name RightHand_dum1
      direction -1.000000 0.000000 0.000000
      length 3.937000
      axis 0.0 0.0 90.0 xyz
   end
   begin
      id 21
      name RightHand_dum2
      direction 0.000000 0.000000 0.000000
      length 0.000000
      axis 0.0 0.0 90.0 xyz
   end
   begin
      id 22
      name RightHandThumb1
      direction 0.000000 0.000000 1.000000
      length 3.937000
      axis 0.0 0.0 90.0 xyz
      dof rx rz ry
   end
   begin
      id 23
      name LeftShoulder
      direction 1.000000 0.000000 0.000000
      length 7.708937
      axis 0.0 0.0 -90.0 xyz
      dof rx ry rz
   end
   begin
      id 24
      name LeftArm
      direction 1.000000 0.000000 0.000000
      length 11.521345
      axis 0.0 0.0 -90.0 xyz
      dof rx ry rz
   end
   begin
      id 25
      name LeftForeArm
      direction 1.000000 0.000000 0.000000
      length 10.175898
      axis 0.0 0.0 -90.0 xyz
      dof ry rz rx
   end
   begin
      id 26
      name LeftHand
      direction 1.000000 0.000000 0.000000
      length 0.000000
      axis 0.0 0.0 -90.0 xyz
      dof rx ry rz
   end
   begin
      id 27
      name LeftHand_dum1
      direction 1.000000 0.000000 0.000000
      length 3.937000
      axis 0.0 0.0 -90.0 xyz
   end
   begin
      id 28
      name LeftHand_dum2
      direction 0.000000 0.000000 0.000000
      length 0.000000
      axis 0.0 0.0 -90.0 xyz
   end
   begin
      id 29
      name LeftHandThumb1
      direction 0.000000 0.000000 1.000000
      length 3.937000
      axis 0.0 0.0 -90.0 xyz
      dof rx rz ry
   end
   begin
      id 30
      name Head
      direction 0.000000 1.000000 0.000000
      length 4.527550
      axis 0.0 0.0 0.0 xyz
      dof rx ry rz
   end
:hierarchy
   begin
      root RightUpLeg_dum LeftUpLeg_dum Spine_dum
      RightUpLeg_dum RightUpLeg
      LeftUpLeg_dum LeftUpLeg
      Spine_dum Spine
      RightUpLeg RightLeg
      RightLeg RightFoot
      RightFoot RightToeBase
      LeftUpLeg LeftLeg
      LeftLeg LeftFoot
      LeftFoot LeftToeBase
      Spine Spine_dum1 Spine_dum2 Spine_dum3
      Spine_dum1 RightShoulder
      Spine_dum2 LeftShoulder
      Spine_dum3 Head
      RightShoulder RightArm
      RightArm RightForeArm
      RightForeArm RightHand
      RightHand RightHand_dum1 RightHand_dum2
      RightHand_dum2 RightHandThumb1
      LeftShoulder LeftArm
      LeftArm LeftForeArm
      LeftForeArm LeftHand
      LeftHand LeftHand_dum1 LeftHand_dum2
      LeftHand_dum2 LeftHandThumb1
   end

# File created by Blade
# Date/Time:  Thu Jan 22 16:25:48 2015
# Frame Rate: 120.000 fps
#------------------------------------------------------
:FULLY-SPECIFIED
:DEGREES
107
root 3.388830 37.085821 6.400863 -3.725101 -0.593378 2.320811
RightUpLeg 7.945715 -1.888812 -5.998752
RightLeg 6.374715 -0.000000 -0.000000
RightFoot -17.456224 -10.648326 19.556146
RightToeBase 13.083701 -0.000000 -0.000000
LeftUpLeg 11.724884 -1.214403 -3.434921
LeftLeg -2.271324 -0.000000 0.000000
LeftFoot -10.508132 12.110712 -14.376624
LeftToeBase 9.460856 -0.000000 -0.000000
Spine 8.027633 -2.554117 -3.093216
RightShoulder -4.145172 -20.530104 -14.407807
RightArm 15.911815 1.064965 53.516587
RightForeArm 12.288536 -0.000000 60.763435
RightHand 7.114705 -0.000000 -6.270495
RightHandThumb1 -24.326973 -0.000000 -32.862282
LeftShoulder -25.712693 33.112524 5.773849
LeftArm 37.986178 -23.275610 -65.110738
LeftForeArm 38.188394 -0.000000 47.392792
LeftHand -17.049003 -0.000000 -8.224174
LeftHandThumb1 -26.253704 0.000000 33.147579
Head 1.220231 12.299769 3.847465
108
root 3.426612 37.078426 6.405939 -3.736230 -0.442599 2.399422
RightUpLeg 7.661469 -1.886550 -6.148495
RightLeg 7.066733 -0.000000 -0.000000
RightFoot -17.744237 -10.543633 19.556545
RightToeBase 12.975228 -0.000000 -0.000000
LeftUpLeg 11.730961 -1.344990 -3.566467
LeftLeg -2.257116 -0.000000 0.000000
LeftFoot -10.511892 12.033192 -14.361140
LeftToeBase 9.460137 -0.000000 -0.000000
Spine 8.186621 -2.488369 -3.235685
RightShoulder -4.203962 -20.932446 -14.084098
RightArm 16.473214 -0.091743 54.132145
RightForeArm 11.883681 0.000000 60.967183
RightHand 6.899784 -0.000000 -6.059310
RightHandThumb1 -24.326973 -0.000000 -32.862282
LeftShoulder -25.742076 33.139277 5.541061
LeftArm 38.128009 -22.290307 -65.595009
LeftForeArm 38.364236 -0.000000 47.796375
LeftHand -17.026284 -0.000000 -8.334304
LeftHandThumb1 -26.253704 0.000000 33.147579
Head 1.240768 12.169483 3.963303
109
root 3.462503 37.069804 6.407698 -3.737720 -0.314665 2.519772
RightUpLeg 7.392440 -1.620360 -6.367191
RightLeg 7.738733 -0.000000 -0.000000
RightFoot -17.948931 -10.283188 19.337702
RightToeBase 12.743325 -0.000000 -0.000000
LeftUpLeg 11.715448 -1.412112 -3.726371
LeftLeg -2.222743 -0.000000 0.000000
LeftFoot -10.503352 11.909024 -14.339896
LeftToeBase 9.414725 -0.000000 -0.000000
Spine 8.342943 -2.415974 -3.450048
RightShoulder -4.218387 -21.275587 -13.779152
RightArm 17.004433 -1.276686 54.784877
RightForeArm 11.505262 0.000000 61.080548
RightHand 6.968798 -0.000000 -5.767794
RightHandThumb1 -24.326973 -0.000000 -32.862282
LeftShoulder -25.815153 33.202952 5.289401
LeftArm 38.330553 -21.302768 -66.097197
LeftForeArm 38.754303 -0.000000 48.125012
LeftHand -16.973484 0.000000 -8.397969
LeftHandThumb1 -26.253704 0.000000 33.147579
Head 1.269105 12.048910 4.108668
110
root 3.500803 37.069107 6.413535 -3.811318 -0.126164 2.515609
RightUpLeg 6.724259 -2.423114 -6.366005
RightLeg 9.193298 -0.000000 -0.000000
RightFoot -18.528727 -10.487766 19.989883
RightToeBase 12.709711 -0.000000 -0.000000
LeftUpLeg 11.782367 -1.567162 -3.777066
LeftLeg -2.203254 -0.000000 0.000000
LeftFoot -10.487158 11.820738 -14.312120
LeftToeBase 9.393713 -0.000000 -0.000000
Spine 8.604994 -2.428168 -3.466736
RightShoulder -4.211372 -21.513149 -13.484272
RightArm 17.463667 -2.478001 55.343162
RightForeArm 11.165121 -0.000000 61.159621
RightHand 6.975542 -0.000000 -5.513584
RightHandThumb1 -24.326973 -0.000000 -32.862282
LeftShoulder -25.856459 33.157636 4.946875
LeftArm 38.435227 -20.313803 -66.570106
LeftForeArm 38.956061 -0.000000 48.450692
LeftHand -16.977669 0.000000 -8.482340
LeftHandThumb1 -26.253704 0.000000 33.147579
Head 1.265671 11.912991 4.148762
111
root 3.538165 37.062285 6.413942 -3.843659 0.018200 2.610600
RightUpLeg 6.205456 -2.671448 -6.490960
RightLeg 10.324151 -0.000000 -0.000000
RightFoot -18.978660 -10.539597 20.267113
RightToeBase 12.564689 -0.000000 -0.000000
LeftUpLeg 11.796508 -1.656567 -3.918579
LeftLeg -2.172407 -0.000000 0.000000
LeftFoot -10.480463 11.710729 -14.307269
LeftToeBase 9.426086 -0.000000 -0.000000
Spine 8.837046 -2.362210 -3.630617
RightShoulder -4.185702 -21.630070 -13.213043
RightArm 17.806956 -3.767702 55.964329
RightForeArm 10.923115 0.000000 61.202013
RightHand 6.913516 -0.000000 -5.333345
RightHandThumb1 -24.326973 -0.000000 -32.862282
LeftShoulder -25.888492 33.189553 4.670920
LeftArm 38.635406 -19.341706 -67.100548
LeftForeArm 39.098270 -0.000000 48.689974
LeftHand -17.182076 -0.000000 -8.689541
LeftHandThumb1 -26.253704 0.000000 33.147579
Head 1.223207 11.791501 4.216231
112
root 3.571240 37.053506 6.418894 -3.912217 0.158345 2.710339
RightUpLeg 5.859002 -2.623671 -6.619368
RightLeg 11.256838 -0.000000 -0.000000
RightFoot -19.344765 -10.582801 20.371148
RightToeBase 12.381493 -0.000000 -0.000000
LeftUpLeg 11.866010 -1.634288 -4.040978
LeftLeg -2.161790 -0.000000 0.000000
LeftFoot -10.450266 11.512886 -14.217506
LeftToeBase 9.420618 -0.000000 -0.000000
Spine 9.109686 -2.295156 -3.828245
RightShoulder -4.156743 -21.690211 -12.935238
RightArm 18.124727 -5.113188 56.567692
RightForeArm 10.634088 -0.000000 61.201844
RightHand 6.929366 -0.000000 -5.231732
RightHandThumb1 -24.326973 -0.000000 -32.862282
LeftShoulder -25.885265 33.174356 4.452283
LeftArm 38.750658 -18.362984 -67.591997
LeftForeArm 39.335469 -0.000000 48.884822
LeftHand -17.251082 -0.000000 -8.590579
LeftHandThumb1 -26.253704 0.000000 33.147579
Head 1.182237 11.676885 4.373468
113
root 3.600240 37.044929 6.420007 -3.962792 0.338312 2.787639
RightUpLeg 5.471463 -2.637136 -6.704427
RightLeg 12.212908 -0.000000 -0.000000
RightFoot -19.680325 -10.740853 20.456231
RightToeBase 12.095514 -0.000000 -0.000000
LeftUpLeg 11.889582 -1.720317 -4.144230
LeftLeg -2.113813 -0.000000 0.000000
LeftFoot -10.462657 11.337336 -14.233811
LeftToeBase 9.404862 -0.000000 -0.000000
Spine 9.374434 -2.279716 -4.006080
RightShoulder -4.090280 -21.803728 -12.676259
RightArm 18.477618 -6.414912 57.162050
RightForeArm 10.359623 0.000000 61.160131
RightHand 6.893972 -0.000000 -5.100344
RightHandThumb1 -24.326973 -0.000000 -32.862282
LeftShoulder -25.839133 33.175826 4.266517
LeftArm 38.811429 -17.394338 -68.090491
LeftForeArm 39.357129 0.000000 49.076562
LeftHand -17.277051 -0.000000 -8.690643
LeftHandThumb1 -26.253704 0.000000 33.147579
Head 1.135888 11.616781 4.556846
114
root 3.628202 37.036134 6.419327 -4.021427 0.510674 2.878302
RightUpLeg 5.051195 -2.590762 -6.806457
RightLeg 13.254333 -0.000000 -0.000000
RightFoot -20.038757 -10.815608 20.672913
RightToeBase 11.816060 -0.000000 -0.000000
LeftUpLeg 11.930364 -1.837319 -4.265249
LeftLeg -2.085143 -0.000000 0.000000
LeftFoot -10.460028 11.206200 -14.203574
LeftToeBase 9.389033 -0.000000 -0.000000
Spine 9.671882 -2.243464 -4.207592
RightShoulder -4.065777 -21.973590 -12.371339
RightArm 18.942405 -7.737068 57.621761
RightForeArm 10.129780 -0.000000 61.094133
RightHand 6.865884 -0.000000 -4.944075
RightHandThumb1 -24.326973 -0.000000 -32.862282
LeftShoulder -25.779871 33.160749 4.109180
LeftArm 38.863742 -16.377612 -68.551588
LeftForeArm 39.434265 -0.000000 49.203236
LeftHand -17.285018 0.000000 -8.435591
LeftHandThumb1 -26.253704 0.000000 33.147579
Head 1.077041 11.543382 4.738992
115
root 3.657585 37.026200 6.417565 -4.059725 0.701359 2.981647
RightUpLeg 4.548677 -2.657772 -6.933051
RightLeg 14.417213 -0.000000 -0.000000
RightFoot -20.376912 -10.851044 20.855717
RightToeBase 11.518274 -0.000000 -0.000000
LeftUpLeg 11.959706 -1.955799 -4.406094
LeftLeg -2.073581 -0.000000 0.000000
LeftFoot -10.449928 11.136061 -14.103725
LeftToeBase 9.446728 -0.000000 -0.000000
Spine 9.957577 -2.222664 -4.421153
RightShoulder -4.072742 -22.149597 -12.082397
RightArm 19.402138 -8.990183 58.174500
RightForeArm 9.767307 0.000000 61.037043
RightHand 6.873804 -0.000000 -4.700881
RightHandThumb1 -24.326973 -0.000000 -32.862282
LeftShoulder -25.764162 33.214284 3.888333
LeftArm 39.035371 -15.387281 -68.995662
LeftForeArm 39.711893 -0.000000 49.251428
LeftHand -17.296720 -0.000000 -8.164973
LeftHandThumb1 -26.253704 0.000000 33.147579
Head 0.998864 11.542932 4.954591
116
root 3.683667 37.018734 6.419131 -4.154333 0.914634 3.052100
RightUpLeg 4.116355 -2.709428 -7.014153
RightLeg 15.569427 -0.000000 -0.000000
RightFoot -20.676225 -10.965912 21.034526
RightToeBase 11.208534 -0.000000 -0.000000
LeftUpLeg 12.054963 -2.091031 -4.502638
LeftLeg -2.067855 -0.000000 0.000000
LeftFoot -10.415588 10.984747 -14.045580
LeftToeBase 9.414797 -0.000000 -0.000000
Spine 10.325742 -2.283148 -4.618978
RightShoulder -4.039951 -22.419948 -11.766857
RightArm 20.013187 -10.170989 58.598912
RightForeArm 9.308812 -0.000000 60.953546
RightHand 6.880997 -0.000000 -4.489087
RightHandThumb1 -24.326973 -0.000000 -32.862282
LeftShoulder -25.877071 33.348707 3.583936
LeftArm 39.327271 -14.388546 -69.468256
LeftForeArm 39.836066 -0.000000 49.244242
LeftHand -17.408021 0.000000 -8.300325
LeftHandThumb1 -26.253704 0.000000 33.147579
Head 0.914891 11.448778 5.072609
117
root 3.708441 37.009041 6.422757 -4.251007 1.084908 3.152207
RightUpLeg 3.627149 -2.822358 -7.131971
RightLeg 16.834563 -0.000000 -0.000000
RightFoot -20.925961 -11.047586 21.095011
RightToeBase 10.686818 -0.000000 -0.000000
LeftUpLeg 12.124703 -1.966759 -4.581380
LeftLeg -2.006672 -0.000000 0.000000
LeftFoot -10.424174 10.620061 -14.087386
LeftToeBase 9.497072 -0.000000 -0.000000
Spine 10.701444 -2.279795 -4.847355
RightShoulder -4.019821 -22.655360 -11.468737
RightArm 20.558577 -11.312024 59.083124
RightForeArm 8.734773 -0.000000 60.900911
RightHand 6.822789 0.000000 -4.179846
RightHandThumb1 -24.326973 -0.000000 -32.862282
LeftShoulder -25.924896 33.424783 3.352915
LeftArm 39.524781 -13.347357 -69.872509
LeftForeArm 40.054909 -0.000000 49.180554
LeftHand -17.367970 -0.000000 -8.138207
LeftHandThumb1 -26.253704 0.000000 33.147579
Head 0.791791 11.446529 5.260219
118
root 3.731858 37.000624 6.421048 -4.345978 1.258753 3.243211
RightUpLeg 3.101717 -2.854575 -7.241656
RightLeg 18.158967 -0.000000 -0.000000
RightFoot -21.159988 -11.073652 21.294877
RightToeBase 10.215792 -0.000000 -0.000000
LeftUpLeg 12.308649 -2.257424 -4.741325
LeftLeg -2.184788 -0.000000 0.000000
LeftFoot -10.382507 10.730697 -14.143630
LeftToeBase 9.530535 -0.000000 -0.000000
Spine 11.097697 -2.297744 -5.071212
RightShoulder -3.985544 -22.854745 -11.150016
RightArm 21.096771 -12.394107 59.541502
RightForeArm 8.184030 -0.000000 60.825383
RightHand 6.941733 -0.000000 -3.770063
RightHandThumb1 -24.326973 -0.000000 -32.862282
LeftShoulder -26.003240 33.558484 3.066049
LeftArm 39.827784 -12.358910 -70.303831
LeftForeArm 40.056763 -0.000000 49.070426
LeftHand -17.463591 -0.000000 -8.063027
LeftHandThumb1 -26.253704 0.000000 33.147579
Head 0.665324 11.434954 5.424144
119
root 3.754450 36.993025 6.416900 -4.424726 1.420282 3.338680
RightUpLeg 2.512365 -2.938145 -7.347233
RightLeg 19.566907 -0.000000 -0.000000
RightFoot -21.283466 -11.196524 21.261131
RightToeBase 9.553735 -0.000000 -0.000000
LeftUpLeg 12.450625 -2.503193 -4.895971
LeftLeg -2.315575 -0.000000 0.000000
LeftFoot -10.299236 10.790345 -14.113188
LeftToeBase 9.445889 -0.000000 -0.000000
Spine 11.496892 -2.303547 -5.306207
RightShoulder -3.977922 -23.007803 -10.807067
RightArm 21.626550 -13.485506 59.963015
RightForeArm 7.728090 -0.000000 60.784573
RightHand 6.864002 0.000000 -3.515911
RightHandThumb1 -24.326973 -0.000000 -32.862282
LeftShoulder -26.128373 33.648853 2.747010
LeftArm 40.142481 -11.333397 -70.678336
LeftForeArm 40.281737 -0.000000 48.891284
LeftHand -17.382980 -0.000000 -7.873595
LeftHandThumb1 -26.253704 0.000000 33.147579
Head 0.523492 11.343959 5.543127
